<?xml version="1.0" encoding="utf-8"?>
<!-- Generator: Adobe Illustrator 17.0.0, SVG Export Plug-In . SVG Version: 6.00 Build 0)  -->
<!DOCTYPE svg PUBLIC "-//W3C//DTD SVG 1.1//EN" "http://www.w3.org/Graphics/SVG/1.1/DTD/svg11.dtd">
<svg version="1.1" id="图层_1" xmlns:sketch="http://www.bohemiancoding.com/sketch/ns"
	 xmlns="http://www.w3.org/2000/svg" xmlns:xlink="http://www.w3.org/1999/xlink" x="0px" y="0px" width="490px" height="58px"
	 viewBox="0 0 490 58" enable-background="new 0 0 490 58" xml:space="preserve">
<title>slogan</title>
<desc>Created with Sketch.</desc>
<g>
	<path d="M5,44.547V1.884h8.846c6.378,0,11.008,0.514,13.888,1.54c4.139,1.45,7.373,3.963,9.704,7.545
		c2.326,3.573,3.494,7.837,3.494,12.782c0,4.273-0.924,8.032-2.773,11.287c-1.844,3.246-4.242,5.643-7.187,7.191
		c-2.95,1.548-7.085,2.318-12.401,2.318H5z M9.087,40.513h4.931c5.896,0,9.987-0.363,12.265-1.097
		c3.21-1.044,5.736-2.928,7.572-5.635c1.835-2.716,2.755-6.033,2.755-9.96c0-4.113-1-7.625-2.99-10.544
		c-1.99-2.918-4.764-4.909-8.323-5.997c-2.668-0.804-7.063-1.22-13.194-1.22H9.087V40.513z"/>
	<path d="M75.093,34.073l3.419,1.805c-1.124,2.202-2.419,3.98-3.888,5.333c-1.473,1.353-3.127,2.38-4.963,3.087
		c-1.84,0.708-3.918,1.062-6.24,1.062c-5.149,0-9.173-1.689-12.075-5.06c-2.906-3.379-4.356-7.191-4.356-11.446
		c0-3.998,1.229-7.563,3.684-10.695c3.119-3.989,7.289-5.98,12.513-5.98c5.378,0,9.672,2.043,12.888,6.121
		c2.283,2.884,3.441,6.476,3.481,10.792h-28.39c0.08,3.662,1.247,6.661,3.516,9.005c2.26,2.344,5.06,3.52,8.39,3.52
		c1.605,0,3.167-0.283,4.688-0.84c1.521-0.557,2.812-1.301,3.874-2.22C72.701,37.629,73.855,36.135,75.093,34.073z M75.093,25.581
		c-0.543-2.167-1.335-3.9-2.37-5.192c-1.035-1.292-2.406-2.335-4.109-3.131c-1.703-0.796-3.49-1.186-5.369-1.186
		c-3.096,0-5.758,0.991-7.983,2.981c-1.628,1.451-2.858,3.627-3.689,6.528H75.093z"/>
	<path d="M102.988,16.445l-2.61,2.697c-2.171-2.105-4.294-3.158-6.364-3.158c-1.318,0-2.45,0.433-3.392,1.3
		c-0.937,0.876-1.407,1.884-1.407,3.043c0,1.034,0.385,2.007,1.163,2.937c0.774,0.947,2.398,2.052,4.879,3.334
		c3.025,1.566,5.077,3.07,6.166,4.521c1.062,1.468,1.596,3.122,1.596,4.962c0,2.592-0.911,4.785-2.733,6.581
		c-1.818,1.795-4.096,2.697-6.821,2.697c-1.822,0-3.56-0.398-5.214-1.194c-1.659-0.787-3.03-1.884-4.113-3.273l2.552-2.901
		c2.074,2.335,4.273,3.512,6.599,3.512c1.628,0,3.016-0.523,4.158-1.566c1.141-1.043,1.716-2.274,1.716-3.688
		c0-1.159-0.38-2.194-1.132-3.105c-0.756-0.885-2.464-2.008-5.118-3.361c-2.848-1.468-4.785-2.919-5.812-4.352
		c-1.026-1.424-1.539-3.061-1.539-4.9c0-2.397,0.813-4.388,2.455-5.971c1.632-1.583,3.702-2.38,6.201-2.38
		C97.119,12.18,100.047,13.605,102.988,16.445z"/>
	<path d="M111.586,0c0.925,0,1.712,0.328,2.367,0.991c0.654,0.655,0.982,1.451,0.982,2.38c0,0.902-0.328,1.689-0.982,2.344
		c-0.655,0.663-1.442,0.991-2.367,0.991c-0.907,0-1.685-0.328-2.34-0.991c-0.654-0.655-0.982-1.442-0.982-2.344
		c0-0.928,0.328-1.725,0.982-2.38C109.901,0.328,110.679,0,111.586,0z M109.569,12.995h4.06v31.552h-4.06V12.995z"/>
	<path d="M149.273,12.995h4.06v25.139c0,4.431-0.389,7.669-1.163,9.721c-1.062,2.901-2.91,5.13-5.537,6.697
		c-2.632,1.565-5.79,2.352-9.483,2.352c-2.707,0-5.139-0.389-7.293-1.149c-2.159-0.77-3.909-1.795-5.263-3.087
		c-1.353-1.292-2.601-3.176-3.742-5.652h4.405c1.203,2.087,2.751,3.626,4.649,4.635c1.898,1.008,4.25,1.513,7.054,1.513
		c2.769,0,5.104-0.523,7.01-1.548c1.911-1.035,3.269-2.327,4.082-3.892c0.814-1.557,1.221-4.078,1.221-7.554v-1.628
		c-1.531,1.937-3.401,3.423-5.604,4.449c-2.207,1.035-4.546,1.557-7.028,1.557c-2.901,0-5.63-0.716-8.187-2.159
		c-2.552-1.442-4.529-3.379-5.918-5.821c-1.393-2.432-2.091-5.112-2.091-8.032s0.725-5.635,2.18-8.165
		c1.45-2.521,3.458-4.52,6.019-5.988c2.565-1.468,5.268-2.203,8.116-2.203c2.362,0,4.56,0.487,6.603,1.469
		c2.039,0.973,4.012,2.582,5.909,4.83V12.995z M137.296,16.1c-2.304,0-4.44,0.557-6.413,1.663c-1.968,1.114-3.516,2.653-4.639,4.617
		c-1.119,1.955-1.68,4.078-1.68,6.36c0,3.467,1.159,6.324,3.48,8.589c2.322,2.255,5.325,3.388,9.018,3.388
		c3.733,0,6.732-1.114,9.005-3.361c2.269-2.246,3.406-5.192,3.406-8.845c0-2.38-0.523-4.503-1.566-6.369
		c-1.043-1.858-2.521-3.335-4.436-4.423C141.559,16.639,139.499,16.1,137.296,16.1z"/>
	<path d="M162.028,12.995h4.06v5.652c1.628-2.167,3.424-3.777,5.396-4.856c1.973-1.071,4.118-1.611,6.44-1.611
		c2.357,0,4.449,0.602,6.275,1.805c1.827,1.194,3.176,2.803,4.047,4.838c0.871,2.026,1.305,5.193,1.305,9.483v16.241h-4.061V29.492
		c0-3.636-0.15-6.06-0.451-7.272c-0.468-2.087-1.375-3.662-2.707-4.715c-1.336-1.053-3.074-1.583-5.219-1.583
		c-2.455,0-4.658,0.814-6.603,2.433c-1.942,1.628-3.22,3.644-3.839,6.042c-0.389,1.557-0.584,4.423-0.584,8.58v11.571h-4.06V12.995z
		"/>
	<path d="M215.359,1.884h21.375V6.06h-17.111v13.374h17.111v4.176h-17.111v20.937h-4.264V1.884z"/>
	<path d="M241.953,12.995h4.149v4.609c1.235-1.813,2.543-3.176,3.914-4.069c1.371-0.902,2.8-1.354,4.291-1.354
		c1.123,0,2.322,0.363,3.596,1.08l-2.119,3.414c-0.85-0.362-1.562-0.548-2.145-0.548c-1.354,0-2.659,0.557-3.915,1.672
		c-1.255,1.105-2.211,2.831-2.87,5.175c-0.504,1.795-0.752,5.431-0.752,10.898v10.677h-4.149V12.995z"/>
	<path d="M276.287,12.18c4.865,0,8.89,1.761,12.088,5.282c2.906,3.21,4.357,7.005,4.357,11.393c0,4.414-1.535,8.262-4.604,11.561
		c-3.07,3.291-7.014,4.945-11.84,4.945c-4.838,0-8.797-1.654-11.866-4.945c-3.07-3.299-4.604-7.147-4.604-11.561
		c0-4.37,1.45-8.156,4.361-11.367C267.371,13.95,271.409,12.18,276.287,12.18z M276.274,16.152c-3.375,0-6.276,1.247-8.7,3.742
		c-2.428,2.495-3.639,5.511-3.639,9.049c0,2.283,0.553,4.414,1.659,6.378c1.105,1.973,2.601,3.495,4.485,4.573
		c1.88,1.071,3.945,1.611,6.197,1.611c2.251,0,4.316-0.54,6.197-1.611c1.884-1.079,3.379-2.601,4.485-4.573
		c1.105-1.964,1.659-4.095,1.659-6.378c0-3.538-1.216-6.554-3.653-9.049C282.528,17.399,279.631,16.152,276.274,16.152z"/>
	<path d="M300.211,12.995h4.06v5.449c1.415-2.008,2.866-3.476,4.357-4.406c2.052-1.238,4.21-1.858,6.475-1.858
		c1.53,0,2.981,0.302,4.352,0.903c1.375,0.601,2.498,1.398,3.37,2.388c0.871,1,1.623,2.424,2.264,4.282
		c1.35-2.477,3.039-4.352,5.064-5.644c2.025-1.283,4.202-1.928,6.537-1.928c2.18,0,4.104,0.549,5.772,1.655
		c1.668,1.105,2.906,2.636,3.716,4.609c0.813,1.972,1.216,4.936,1.216,8.871v17.232h-4.144V27.315c0-3.379-0.243-5.705-0.726-6.97
		c-0.482-1.264-1.304-2.282-2.467-3.061c-1.168-0.769-2.561-1.159-4.179-1.159c-1.964,0-3.76,0.583-5.392,1.743
		c-1.627,1.159-2.817,2.707-3.569,4.635c-0.752,1.937-1.128,5.166-1.128,9.686v12.358h-4.061V28.395
		c0-3.812-0.234-6.396-0.707-7.758c-0.473-1.361-1.3-2.458-2.481-3.282c-1.177-0.813-2.579-1.229-4.207-1.229
		c-1.875,0-3.627,0.566-5.263,1.698c-1.632,1.132-2.84,2.654-3.622,4.564c-0.783,1.919-1.177,4.848-1.177,8.793v13.366h-4.06V12.995
		z"/>
	<path d="M372.449,1.884h4.264v42.663h-4.264V1.884z"/>
	<path d="M389.361,1.283h4.052v11.712h6.439v3.512h-6.439v28.041h-4.052V16.506h-5.542v-3.512h5.542V1.283z"/>
	<path d="M437.375,12.995v31.552h-3.998v-5.422c-1.698,2.07-3.609,3.626-5.732,4.67c-2.114,1.043-4.423,1.565-6.935,1.565
		c-4.476,0-8.28-1.619-11.447-4.865c-3.167-3.228-4.741-7.174-4.741-11.809c0-4.546,1.592-8.43,4.785-11.658
		c3.193-3.228,7.033-4.848,11.508-4.848c2.601,0,4.936,0.549,7.041,1.655c2.088,1.105,3.937,2.76,5.52,4.962v-5.803H437.375z
		 M421.152,16.1c-2.255,0-4.343,0.557-6.254,1.663c-1.911,1.114-3.432,2.671-4.564,4.679c-1.124,2.007-1.69,4.13-1.69,6.369
		c0,2.22,0.566,4.352,1.707,6.378c1.141,2.025,2.663,3.6,4.591,4.732c1.919,1.132,3.98,1.698,6.183,1.698
		c2.22,0,4.325-0.557,6.315-1.68c1.991-1.123,3.521-2.636,4.591-4.547c1.07-1.91,1.61-4.069,1.61-6.456
		c0-3.654-1.203-6.706-3.609-9.156C427.627,17.329,424.673,16.1,421.152,16.1z"/>
	<path d="M445.902,0.814h4.069v43.733h-4.069V0.814z"/>
	<path d="M455.014,12.995h4.29l10.845,24.299l10.526-24.299H485L466.177,56.09h-4.29l6.077-13.932L455.014,12.995z"/>
</g>
</svg>
